<?xml version="1.0" encoding="UTF-8"?>
<!DOCTYPE svg PUBLIC "-//W3C//DTD SVG 1.1//EN" "http://www.w3.org/Graphics/SVG/1.1/DTD/svg11.dtd">
<svg xmlns="http://www.w3.org/2000/svg" version="1.1" width="1080px" height="1080px" style="shape-rendering:geometricPrecision; text-rendering:geometricPrecision; image-rendering:optimizeQuality; fill-rule:evenodd; clip-rule:evenodd"
  xmlns:xlink="http://www.w3.org/1999/xlink">
  <style>
    path {
      fill: black;
    }
    @media (prefers-color-scheme: dark) {
      path {
        fill: white;
      }
    }
  </style>
  <g>
    <path style="opacity:0.996" fill="#000000" d="M -0.5,151.5 C 124.516,151.022 249.516,151.522 374.5,153C 428.861,157.658 476.528,177.658 517.5,213C 553.637,248.456 573.137,291.622 576,342.5C 578.835,376.488 575.502,409.821 566,442.5C 555.027,471.951 537.527,496.785 513.5,517C 497.896,529.912 480.73,540.412 462,548.5C 461.5,554.825 461.334,561.158 461.5,567.5C 507.287,569.804 536.787,592.804 550,636.5C 552.091,644.712 553.424,653.045 554,661.5C 554.5,749.833 554.667,838.166 554.5,926.5C 505.5,926.5 456.5,926.5 407.5,926.5C 407.667,845.166 407.5,763.833 407,682.5C 402.86,653.692 386.36,637.858 357.5,635C 286.834,634.5 216.167,634.333 145.5,634.5C 145.5,731.833 145.5,829.167 145.5,926.5C 96.8333,926.5 48.1667,926.5 -0.5,926.5C -0.5,668.167 -0.5,409.833 -0.5,151.5 Z M 145.5,284.5 C 206.501,284.333 267.501,284.5 328.5,285C 366.893,285.438 396.393,301.604 417,333.5C 426.664,352.151 430.831,371.985 429.5,393C 431.694,432.945 416.36,463.945 383.5,486C 369.156,493.892 353.822,498.559 337.5,500C 273.501,500.5 209.501,500.667 145.5,500.5C 145.5,428.5 145.5,356.5 145.5,284.5 Z"/>
  </g>
  <g>
    <path style="opacity:0.992" fill="#000000" d="M 1079.5,376.5 C 1079.5,415.167 1079.5,453.833 1079.5,492.5C 1029.5,492.5 979.5,492.5 929.5,492.5C 929.333,589.501 929.5,686.501 930,783.5C 930.508,797.396 937.342,806.23 950.5,810C 989.165,810.5 1027.83,810.667 1066.5,810.5C 1066.5,849.167 1066.5,887.833 1066.5,926.5C 1006.47,926.973 946.472,926.473 886.5,925C 826.192,912.349 794.025,875.182 790,813.5C 789.5,706.501 789.333,599.501 789.5,492.5C 743.833,492.5 698.167,492.5 652.5,492.5C 652.5,453.833 652.5,415.167 652.5,376.5C 794.833,376.5 937.167,376.5 1079.5,376.5 Z"/>
  </g>
</svg>
