<?xml version="1.0" encoding="UTF-8" standalone="no"?>
<svg xmlns:dc="http://purl.org/dc/elements/1.1/"
   xmlns:cc="http://creativecommons.org/ns#"
   xmlns:rdf="http://www.w3.org/1999/02/22-rdf-syntax-ns#"
   xmlns:svg="http://www.w3.org/2000/svg"
   xmlns="http://www.w3.org/2000/svg" viewBox="0 0 3174.803 4025.197" id="svg12" height="4025.197" width="3174.803" version="1.1">
   <metadata id="metadata18">
      <rdf:RDF>
         <cc:Work rdf:about="">
            <dc:format>image/svg+xml</dc:format>
            <dc:type rdf:resource="http://purl.org/dc/dcmitype/StillImage" />
         </cc:Work>
      </rdf:RDF>
   </metadata>
   <defs id="defs16" />
   <path id="path2" style="fill:#003662;fill-rule:evenodd" d="m 2202.3587,2954.991 v 929.5491 c 0,136.2299 121.555,129.992 245.409,117.6277 5.5557,-0.3341 6.4178,-1.448 6.5136,-6.1264 0,-2.6734 5.843,-614.6497 5.843,-629.5759 35.4416,34.0853 307.6713,427.6259 364.5694,505.3761 108.3362,147.8145 71.5536,133.5566 296.9429,133.5566 39.3689,0 40.8057,-10.8049 40.8057,-48.7888 v -929.5491 c 0,-34.0853 -7.2799,-59.3708 -20.2112,-77.6388 -42.5299,-60.1505 -154.0272,-46.2268 -213.2243,-41.3256 -7.2798,0.6683 -17.7207,6.9061 -18.2955,14.4807 0,70.287 0.479,550.9346 0,655.0842 -15.9008,-12.0301 -57.9517,-67.2795 -71.9368,-87.3297 -121.7466,-175.4392 -248.9531,-364.3565 -377.5965,-530.1047 -54.4076,-70.0643 -99.8111,-54.0242 -217.9178,-54.0242 -40.1352,0 -40.9015,9.691 -40.9015,48.7888 z" />
   <path id="path4" style="fill:#003662;fill-rule:evenodd" d="m 1398.9843,3990.2491 v -1.1139 l 5.3641,-321.0258 308.0544,-3.0075 c 287.7473,3.3417 423.3832,-357.6731 282.6705,-598.7209 -52.5876,-90.1145 -143.3947,-47.8977 -307.6712,-12.2529 -81.803,17.8224 -139.0842,14.1465 -138.3179,55.3608 68.2011,23.5032 131.4212,-16.3744 194.0666,43.3307 43.0088,40.8801 63.7948,117.8505 43.0088,195.0437 -40.3268,149.5967 -227.4966,113.8406 -381.7154,113.8406 0,-400.6697 40.5184,-356.4478 -146.2683,-318.6867 -153.1651,30.9664 -110.5394,27.402 -110.5394,410.0264 0,111.2786 -3.64,228.5722 -0.096,339.071 4.1189,131.6629 115.5204,113.2836 229.9871,113.2836 0.3831,0 1.2452,0 1.7242,0 16.3797,0.2227 19.7323,-2.562 19.7323,-15.1491 z" />
   <path id="path6" style="fill:#003662;fill-rule:evenodd" d="m 305.2763,3272.4524 8.621,-15.5946 c 26.8206,-81.4261 154.0271,-140.1286 230.2744,-186.3554 42.051,-25.5083 235.8302,-135.116 256.9036,-159.7332 -238.0333,-51.6849 -453.748,-18.0452 -608.6373,103.1471 -129.0265,100.9193 -204.5075,330.0484 -172.8974,566.8634 29.2153,219.4382 156.4219,357.4503 343.4001,413.3681 172.8975,51.6849 508.8262,29.8525 627.8907,-73.5174 l 3.3526,-302.6465 c 0,-96.2409 17.9124,-213.8686 -77.1094,-237.3719 -102.3016,-25.2855 -291.8662,75.6338 -411.2181,119.8556 -31.8974,11.8073 -36.8784,7.2403 -34.2921,45.8926 l 301.6366,4.9012 0.1915,160.5129 c 1.2453,77.8615 -1.5326,67.0567 -84.1977,81.3146 -97.3206,16.7085 -210.7337,11.0276 -287.8431,-32.4144 -134.5822,-75.8566 -165.1386,-312.8944 -96.0754,-488.2221 z" />
   <path id="path8" style="fill:#f2303e;fill-rule:evenodd" d="m 2620.8567,2159.7782 112.7425,15.3719 c -5.843,5.6808 -0.8621,13.2554 -43.4878,18.4907 -24.1385,3.0075 -29.79,2.005 -52.875,-1.4481 z m -1819.7814,750.991 c -21.0734,24.6172 -214.8526,134.2249 -256.9036,159.7332 -76.2473,46.2268 -203.4538,104.9293 -230.2744,186.3554 l -4.3105,7.7973 8.7167,-2.3392 c 48.2772,-8.2429 188.5109,-72.5149 242.9185,-95.684 81.0367,-34.4195 196.5571,-98.3573 251.4436,-67.5023 -33.6216,47.6749 -278.36,94.4587 -277.4979,201.7272 71.4578,-8.6884 1180.9708,-356.225 1290.9355,-388.4167 110.6352,-32.3031 211.3085,-60.8189 302.5945,-115.2886 61.6875,-36.7587 407.2908,-313.8969 471.373,-364.1337 45.2119,-35.5334 64.8485,-58.1456 140.1379,-68.9504 72.7989,-10.3593 128.2602,-3.6759 143.3947,-73.8515 -54.7908,23.726 -65.7106,31.5233 -113.2215,-4.6784 16.0924,-28.5158 56.036,-39.7662 97.4165,-33.9739 68.0095,9.3567 54.9823,38.0953 87.6461,58.2569 14.7513,-149.5967 -133.6244,-134.1135 -157.4756,-148.1486 -16.5713,-9.8023 -29.5985,-36.5359 -55.0781,-52.7989 -43.9668,-28.1816 -119.3519,-14.8148 -175.388,-13.2554 -72.4157,1.8937 -128.1644,-11.139 -194.9286,-12.1415 9.3872,33.0828 27.2996,39.3207 45.4035,71.6238 -21.4565,13.144 -31.5143,11.4731 -63.9864,16.7085 -22.7976,3.6758 -48.5646,8.7998 -64.5612,15.3718 -6.2262,44.3332 62.3581,80.4235 30.748,145.4752 -23.2765,-14.0351 -688.9077,-868.3959 -736.3228,-929.9946 -43.0088,-55.9177 -81.4198,-100.9193 -124.1413,-156.837 -118.9687,-155.5004 -208.7221,-219.9951 -340.5265,-350.8783 -25.1923,-24.9514 -44.4457,-50.1255 -70.0211,-73.9629 L 621.8558,405.4981 C 571.9503,357.7118 527.313,316.6089 477.9822,268.4885 L 267.7274,60.969 C 239.9489,34.124 207.7641,-8.3155 190.8096,7.6132 c -18.8702,33.5284 -11.7819,219.5496 2.8736,264.1056 25.4797,77.7501 82.3778,117.1822 127.2066,161.1812 97.7996,95.9068 190.4266,184.9073 287.9389,281.0368 135.0611,133.111 289.1841,293.067 427.981,421.9451 32.7595,30.4095 120.1182,99.2485 102.4932,180.8973 -24.5217,-8.1315 -359.8757,-342.5241 -415.5286,-393.7635 L 364.9523,569.0185 c -20.4029,-18.9363 -31.6101,-42.7737 -65.7106,-42.8851 -17.7208,30.2981 -11.0156,201.1702 -0.8621,239.377 19.9239,75.2996 69.159,110.3874 109.1984,149.8194 l 517.447,505.3762 c 45.5951,43.7762 79.8873,76.1907 125.4824,126.6504 36.3036,40.2117 102.2058,75.1882 90.3281,167.6418 -38.6984,-9.2453 -140.0421,-129.5465 -182.2847,-169.3127 L 500.1092,1103.8016 c -101.4395,-99.694 -101.3437,-111.9469 -101.3437,28.0703 0,123.5314 -0.7663,150.1536 93.2975,246.6173 149.3336,153.1612 288.1305,277.9179 458.5374,449.0129 104.8879,105.2634 191.6719,151.9358 192.534,265.8877 -33.43,-10.9162 -408.0571,-386.6344 -465.4341,-439.5447 -55.5571,-51.3507 -121.3635,-140.0171 -162.4566,-142.2449 -20.4028,35.5334 -34.8668,214.3142 65.9022,310.8893 125.9613,120.7467 273.0918,274.5762 400.2025,392.0926 34.8668,32.3031 65.6148,61.71 99.3322,95.2384 32.7595,32.5259 64.4654,69.8415 61.6875,142.0222 -34.7711,-6.9062 -93.3933,-81.0919 -130.0802,-116.8481 -44.4456,-43.2193 -84.1019,-79.978 -129.5054,-122.6403 L 694.3674,2026.3331 c -22.2228,-20.7185 -41.572,-54.8039 -76.822,-49.9027 -18.8703,90.1145 -4.981,205.0689 45.5951,261.2094 25.767,28.6272 52.2045,50.6824 80.1746,78.3071 l 239.087,236.3695 c 72.3199,68.9504 83.0482,95.4612 147.6094,126.3162 24.3301,11.6959 11.2072,-0.7797 24.2343,16.9313 z" />
   <path id="path10" style="fill:#f2303e;fill-rule:evenodd" d="m 2286.4606,1407.562 -6.8967,-8.577 c -31.7059,-51.3508 -143.5863,-450.5723 -180.3689,-479.5337 -36.4953,15.4832 -83.2399,139.683 -88.125,176.3302 -21.4566,159.956 227.4966,531.3301 124.1413,620.6648 l -82.7609,-213.5345 c -16.4756,-46.7838 -55.2697,-189.4743 -82.8567,-210.6384 -28.5448,9.0226 -101.2479,146.4778 -88.8913,236.1467 5.7473,41.6598 67.0516,214.7598 87.9334,245.6148 40.3268,59.5936 97.5123,127.3187 142.3411,182.0111 l 107.9531,136.8983 c 16.5714,21.4982 18.8703,34.0853 46.3614,39.0979 l 271.0802,-548.2613 c 36.3995,-87.4411 10.9199,-146.4778 -16.3797,-224.5621 L 2309.1624,748.5791 c -21.0734,-60.3733 -46.1699,-148.26 -70.6916,-200.9474 -37.2616,5.9036 -31.8974,20.6071 -63.6991,83.431 -17.2418,33.9739 -33.2384,63.9378 -35.4415,111.5013 -3.3526,71.1782 106.9952,356.2251 136.3063,443.332 20.3071,60.3734 70.3085,165.1913 10.8241,221.666 z" />
</svg>
